<?xml version="1.0" encoding="UTF-8" standalone="no"?>
<svg
   xmlns:dc="http://purl.org/dc/elements/1.1/"
   xmlns:cc="http://creativecommons.org/ns#"
   xmlns:rdf="http://www.w3.org/1999/02/22-rdf-syntax-ns#"
   xmlns:svg="http://www.w3.org/2000/svg"
   xmlns="http://www.w3.org/2000/svg"
   xmlns:sodipodi="http://sodipodi.sourceforge.net/DTD/sodipodi-0.dtd"
   xmlns:inkscape="http://www.inkscape.org/namespaces/inkscape"
   inkscape:version="1.0 (4035a4f, 2020-05-01)"
   sodipodi:docname="cleo.svg"
   id="svg5446"
   viewBox="0 0 48.967135 36.015021"
   version="1.1"
   height="36.015022mm"
   width="48.967136mm">
  <defs
     id="defs5450" />
  <sodipodi:namedview
     inkscape:current-layer="svg5446"
     inkscape:window-maximized="0"
     inkscape:window-y="23"
     inkscape:window-x="0"
     inkscape:cy="68.038378"
     inkscape:cx="92.540348"
     inkscape:zoom="3.5487679"
     showgrid="false"
     id="namedview5448"
     inkscape:window-height="1000"
     inkscape:window-width="1789"
     inkscape:pageshadow="2"
     inkscape:pageopacity="0"
     guidetolerance="10"
     gridtolerance="10"
     objecttolerance="10"
     borderopacity="1"
     bordercolor="#666666"
     pagecolor="#ffffff" />
  <metadata
     id="metadata5386">
    <rdf:RDF>
      <cc:Work
         rdf:about="">
        <dc:format>image/svg+xml</dc:format>
        <dc:type
           rdf:resource="http://purl.org/dc/dcmitype/StillImage" />
        <dc:title />
      </cc:Work>
    </rdf:RDF>
  </metadata>
  <path
     id="path5392"
     fill="#b2862b"
     d="m 34.569133,3.4458202 c 0,0 11.658,-5.7369 13.878,-2.406 2.2204,3.3306 -3.423,16.1649998 -2.8677,17.1889998 0.55491,1.0245 -2.498,2.2151 -3.0533,1.5279 -0.5549,-0.68862 -0.0931,-8.6328 -7.9569,-16.3109998" />
  <path
     id="path5394"
     fill="#f1a6ba"
     d="m 43.879133,15.26582 c -0.6858,-2.885 -3.2322,-6.3492998 -6.6844,-10.4979998 2.3622,-0.95603 6.5511,-2.5531 8.5594,-2.5531 0.526,0 0.78176,0.0759 0.87701,0.1136 0.74613,1.5744 -1.343,8.3441998 -2.1364,10.9139998 -0.24061,0.77964 -0.44663,1.4464 -0.6156,2.0232" />
  <path
     id="path5396"
     fill="#b2862b"
     d="m 14.399133,3.4458202 c 0,0 -11.6579999,-5.7369 -13.87899993,-2.406 -2.22069997,3.3306 3.42260003,16.1649998 2.86770003,17.1889998 -0.55527,1.0245 2.498,2.2151 3.0529,1.5279 0.55527,-0.68862 0.0938,-8.6328 7.9579999,-16.3109998" />
  <path
     id="path5398"
     fill="#f1a6ba"
     d="m 5.0881331,15.26582 c -0.16898,-0.57679 -0.375,-1.2435 -0.61559,-2.0232 -0.7927,-2.5675 -2.8787,-9.3252998 -2.1354,-10.9149998 0.0963,-0.0377 0.35172,-0.11254 0.87524,-0.11254 2.0147,0 6.2008,1.596 8.5601999,2.552 C 8.3202831,8.9164802 5.7739831,12.37968 5.0881831,15.26608" />
  <path
     id="path5400"
     fill="#a77a29"
     d="m 44.404133,20.51582 c 0,8.2878 -5.0627,12.884 -12.268,14.649 -0.76588,0.1898 -1.56,0.34502 -2.376,0.46743 -1.682,0.26035 -3.4586,0.38277 -5.2959,0.38277 -1.8373,0 -3.6135,-0.12242 -5.2959,-0.38277 -0.81562,-0.12241 -1.6101,-0.27763 -2.376,-0.46743 -7.2050999,-1.765 -12.2679999,-6.3609 -12.2679999,-14.649 0,-11.0129998 8.9315999,-20.49499984 19.9399999,-20.49499984 11.014,0 19.94,9.48160004 19.94,20.49499984" />
  <path
     id="path5402"
     fill="#e4dd29"
     d="m 17.984133,20.89582 c 0,2.4328 -1.9727,4.4062 -4.4062,4.4062 -2.4335,0 -4.4061999,-1.9734 -4.4061999,-4.4062 0,-2.4342 1.9726999,-4.4062 4.4061999,-4.4062 2.4335,0 4.4062,1.972 4.4062,4.4062" />
  <path
     id="path5404"
     fill="#403317"
     d="m 13.577133,24.18582 c -1.8179,0 -3.296,-1.4788 -3.296,-3.296 0,-1.8182 1.4781,-3.296 3.296,-3.296 1.8175,0 3.296,1.4778 3.296,3.296 0,1.8172 -1.4785,3.296 -3.296,3.296" />
  <path
     id="path5406"
     fill="#403339"
     d="m 9.1711331,19.67582 c 0,0 0.0265,-0.16721 0.12559,-0.4452 0.0448,-0.14147 0.11959,-0.3041 0.1972,-0.49601 0.0949,-0.18274 0.18274,-0.40393 0.32949,-0.61418 0.0698,-0.1076 0.13864,-0.22296 0.2183699,-0.33691 0.0875,-0.1083 0.1778,-0.22048 0.27058,-0.33549 0.19227,-0.22472 0.41734,-0.4505 0.67416,-0.65193 0.133,-0.0967 0.26847,-0.19438 0.4057,-0.29351 0.14005,-0.0949 0.29986,-0.16263 0.45402,-0.24166 0.30198,-0.1778 0.65652,-0.23742 0.99025,-0.35242 0.34748,-0.0413 0.6992,-0.10583 1.0414,-0.0963 0.17145,0.0106 0.34113,0.0215 0.50906,0.0325 0.16757,0.01 0.33267,0.0226 0.48859,0.0688 0.31433,0.0748 0.62054,0.1404 0.89888,0.23071 0.2727,0.10901 0.52705,0.21802 0.76024,0.31962 0.23883,0.0882 0.43709,0.21202 0.61102,0.32279 0.17461,0.10795 0.32701,0.20179 0.4526,0.2787 0.24836,0.15628 0.38524,0.25118 0.38524,0.25118 0,0 -0.16158,-0.0526 -0.43497,-0.15523 -0.27694,-0.0921 -0.65018,-0.27834 -1.1282,-0.4004 -0.23777,-0.0653 -0.49319,-0.13617 -0.75989,-0.21802 -0.27234,-0.0603 -0.56444,-0.0882 -0.85936,-0.1464 -0.29563,-0.0667 -0.60678,-0.0194 -0.91687,-0.0487 -0.31115,-0.003 -0.62124,0.0649 -0.93098,0.10336 -0.29457,0.0998 -0.61278,0.14005 -0.8823,0.29563 -0.13688,0.0706 -0.28257,0.12135 -0.41346,0.19791 -0.12841,0.0818 -0.25505,0.16263 -0.37958,0.24236 -0.13124,0.0709 -0.23037,0.18273 -0.34643,0.26705 -0.11042,0.0917 -0.22684,0.17357 -0.31856,0.27693 -0.19685,0.19367 -0.37994,0.3817 -0.53128,0.57362 -0.1626299,0.18273 -0.2832799,0.37323 -0.4085199,0.53093 -0.1076,0.16792 -0.21061,0.3122 -0.27869,0.43991 -0.15029,0.24836 -0.22331,0.4004 -0.22331,0.4004" />
  <path
     d="m 24.484133,25.91582 v 2.1791"
     fill="none"
     stroke="#403339"
     stroke-miterlimit="10"
     stroke-width="0.27756"
     id="path5410" />
  <path
     d="m 26.313133,23.47582 c -0.78211,-0.21978 -1.3631,0.24518 -1.8295,0.7687 -0.46673,-0.52352 -1.0478,-0.98848 -1.8295,-0.7687 -0.97226,0.27552 -1.106,0.96202 -0.5835,1.7046 0.51329,0.72955 2.3403,1.2749 2.413,1.2943 0.0727,-0.0194 1.8983,-0.56479 2.4112,-1.2943 0.52423,-0.7426 0.39159,-1.4291 -0.58173,-1.7046"
     fill="#ef2e57"
     id="path5412" />
  <path
     d="m 24.484133,25.01582 c -0.39123,-0.12242 -1.0806,-0.41205 -1.2594,-0.66464 -0.10301,-0.14746 -0.14782,-0.28081 -0.12065,-0.35877 0.0254,-0.0716 0.13863,-0.14217 0.30126,-0.18874 0.0533,-0.0152 0.10407,-0.0215 0.15381,-0.0215 0.2025,0 0.4057,0.12559 0.65899,0.40958 0.0677,0.0758 0.16404,0.11924 0.266,0.11924 0.10195,0 0.19896,-0.0434 0.26634,-0.11924 0.25295,-0.28399 0.45579,-0.40958 0.65865,-0.40958 0.0494,0 0.10124,0.006 0.15486,0.0215 0.16228,0.0466 0.27481,0.11712 0.30021,0.18874 0.0272,0.078 -0.0183,0.21025 -0.12135,0.35771 -0.17886,0.25365 -0.86712,0.54328 -1.2587,0.6657"
     fill="#ffffff"
     id="path5414" />
  <path
     d="m 19.026133,26.47582 c 0,0 -0.4632,3.798 5.4578,1.8098"
     fill="none"
     stroke="#403339"
     stroke-linecap="round"
     stroke-miterlimit="10"
     stroke-width="0.55512"
     id="path5416" />
  <path
     d="m 29.923133,26.47582 c 0,0 0.4632,3.798 -5.4589,1.8098"
     fill="none"
     stroke="#403339"
     stroke-linecap="round"
     stroke-miterlimit="10"
     stroke-width="0.55512"
     id="path5418" />
  <g
     transform="translate(-33.102867,-276.95418)"
     id="g5442">
    <path
       d="m 45.837,297.19 c 0,1.3032 0.99377,2.3594 2.2204,2.3594 1.2252,0 2.2204,-1.0562 2.2204,-2.3594 0,-1.3032 -0.99519,-2.3594 -2.2204,-2.3594 -1.2266,0 -2.2204,1.0562 -2.2204,2.3594"
       fill="#ffffff"
       id="path5420" />
    <path
       d="m 47.363,300.37 c 0,0.38276 -0.31115,0.69391 -0.69391,0.69391 -0.38383,0 -0.69392,-0.31115 -0.69392,-0.69391 0,-0.38383 0.31009,-0.69392 0.69392,-0.69392 0.38276,0 0.69391,0.31009 0.69391,0.69392"
       fill="#ffffff"
       id="path5422" />
    <path
       d="m 64.087,297.85 c 0,2.4328 1.9727,4.4062 4.4062,4.4062 2.4335,0 4.4062,-1.9734 4.4062,-4.4062 0,-2.4342 -1.9728,-4.4062 -4.4062,-4.4062 -2.4334,0 -4.4062,1.972 -4.4062,4.4062"
       fill="#e4dd29"
       id="path5424" />
    <path
       d="m 68.493,301.14 c -1.8175,0 -3.296,-1.4788 -3.296,-3.296 0,-1.8182 1.4785,-3.296 3.296,-3.296 1.8179,0 3.296,1.4778 3.296,3.296 0,1.8172 -1.4781,3.296 -3.296,3.296"
       fill="#403317"
       id="path5426" />
    <path
       d="m 72.899,296.63 c 0,0 -0.073,-0.15204 -0.22366,-0.4004 -0.0677,-0.12771 -0.17076,-0.27199 -0.27836,-0.43991 -0.12523,-0.1577 -0.24588,-0.3482 -0.40851,-0.53093 -0.15133,-0.19192 -0.33444,-0.37995 -0.53129,-0.57362 -0.0917,-0.10336 -0.20813,-0.18521 -0.31854,-0.27693 -0.11607,-0.0843 -0.21521,-0.19615 -0.34644,-0.26705 -0.12453,-0.0797 -0.25118,-0.16052 -0.37959,-0.24236 -0.13088,-0.0766 -0.27658,-0.12736 -0.41346,-0.19791 -0.26952,-0.15558 -0.58771,-0.19579 -0.88229,-0.29563 -0.30974,-0.0385 -0.61982,-0.10618 -0.93097,-0.10336 -0.31011,0.0293 -0.62126,-0.018 -0.91688,0.0487 -0.29493,0.0582 -0.58703,0.0861 -0.85936,0.1464 -0.2667,0.0819 -0.52212,0.15276 -0.75989,0.21802 -0.47802,0.12206 -0.85126,0.30833 -1.1282,0.4004 -0.27341,0.10266 -0.43498,0.15523 -0.43498,0.15523 0,0 0.13689,-0.0949 0.38558,-0.25118 0.12524,-0.0769 0.27764,-0.17075 0.45227,-0.2787 0.17391,-0.11077 0.37219,-0.23459 0.61101,-0.32279 0.23284,-0.1016 0.48754,-0.21061 0.76023,-0.31962 0.27834,-0.0903 0.58456,-0.15592 0.89888,-0.23071 0.15593,-0.0462 0.32068,-0.0593 0.4886,-0.0688 0.16793,-0.0109 0.33796,-0.0219 0.50907,-0.0325 0.34254,-0.01 0.69391,0.055 1.0414,0.0963 0.33371,0.115 0.68826,0.17462 0.99024,0.35242 0.15417,0.079 0.31397,0.14676 0.45438,0.24166 0.13687,0.0991 0.27234,0.19685 0.40533,0.29351 0.25684,0.20143 0.48191,0.42721 0.67417,0.65193 0.0928,0.11501 0.18308,0.22719 0.27057,0.33549 0.0797,0.11395 0.14853,0.22931 0.21838,0.33691 0.14675,0.21025 0.23459,0.43144 0.32913,0.61418 0.078,0.19191 0.15276,0.35454 0.19756,0.49601 0.0991,0.27799 0.1256,0.4452 0.1256,0.4452"
       fill="#403339"
       id="path5428" />
    <path
       d="m 69.337,297.19 c 0,1.3032 -0.99447,2.3594 -2.2204,2.3594 -1.2263,0 -2.2204,-1.0562 -2.2204,-2.3594 0,-1.3032 0.99411,-2.3594 2.2204,-2.3594 1.2259,0 2.2204,1.0562 2.2204,2.3594"
       fill="#ffffff"
       id="path5430" />
    <path
       d="m 67.811,300.37 c 0,0.38276 0.3101,0.69391 0.69392,0.69391 0.38276,0 0.69391,-0.31115 0.69391,-0.69391 0,-0.38383 -0.31115,-0.69392 -0.69391,-0.69392 -0.38382,0 -0.69392,0.31009 -0.69392,0.69392"
       fill="#ffffff"
       id="path5432" />
    <path
       d="m 44.287,288.86 c 0,0 0.006,-0.46214 0.2787,-1.0735 0.13864,-0.30269 0.32878,-0.65053 0.61312,-0.97085 0.2727,-0.32879 0.63747,-0.63077 1.052,-0.86113 0.2166,-0.10054 0.42615,-0.21625 0.66146,-0.26599 0.11394,-0.0325 0.22718,-0.0628 0.34007,-0.0861 0.11607,-0.0116 0.23037,-0.0236 0.3429,-0.0289 0.22366,-0.0272 0.43886,0.005 0.63888,0.0374 0.0995,0.019 0.1965,0.0272 0.28646,0.0543 0.0878,0.0335 0.17251,0.066 0.254,0.0974 0.16016,0.0642 0.30692,0.11465 0.42122,0.19473 0.11712,0.0737 0.21273,0.14852 0.29033,0.20779 0.15453,0.1203 0.23319,0.19685 0.23319,0.19685 0,0 -0.11783,0.008 -0.30692,0.0113 -0.0942,-7.1e-4 -0.20708,0.002 -0.32985,-0.006 -0.12312,-0.009 -0.26599,0.0243 -0.41028,0.0243 -0.14605,0.004 -0.29986,0.018 -0.4572,0.0547 -0.15734,0.0254 -0.31926,0.0441 -0.47836,0.10196 -0.0801,0.025 -0.16122,0.0441 -0.24342,0.0639 -0.0787,0.0339 -0.15769,0.0684 -0.23848,0.0977 -0.16369,0.0522 -0.31714,0.14428 -0.47589,0.22119 -0.1584,0.0797 -0.30763,0.1838 -0.46179,0.27552 -0.14393,0.11007 -0.30021,0.20002 -0.43674,0.31538 -0.28822,0.2099 -0.5401,0.44415 -0.77964,0.63535 -0.45085,0.40535 -0.79375,0.70274 -0.79375,0.70274"
       fill="#403339"
       id="path5434" />
    <path
       d="m 70.887,288.86 c 0,0 -0.3429,-0.29739 -0.79339,-0.70274 -0.23989,-0.1912 -0.49177,-0.42545 -0.78,-0.63535 -0.13652,-0.11536 -0.2928,-0.20531 -0.43672,-0.31538 -0.15417,-0.0917 -0.30339,-0.19579 -0.4618,-0.27552 -0.15875,-0.0769 -0.31221,-0.16898 -0.4759,-0.22119 -0.0808,-0.0293 -0.1598,-0.0639 -0.23882,-0.0977 -0.0815,-0.0198 -0.16299,-0.0388 -0.24307,-0.0639 -0.15946,-0.0579 -0.32103,-0.0766 -0.47837,-0.10196 -0.15734,-0.0367 -0.31115,-0.0508 -0.4572,-0.0547 -0.14429,0 -0.28716,-0.0332 -0.41027,-0.0243 -0.12277,0.008 -0.23567,0.005 -0.32986,0.006 -0.18909,-0.003 -0.3069,-0.0113 -0.3069,-0.0113 0,0 0.0787,-0.0765 0.23318,-0.19685 0.0776,-0.0593 0.17322,-0.13406 0.28998,-0.20779 0.11501,-0.0801 0.2614,-0.13053 0.42156,-0.19473 0.0815,-0.0314 0.16617,-0.0639 0.254,-0.0974 0.09,-0.0272 0.18698,-0.0353 0.28646,-0.0543 0.20003,-0.0324 0.41557,-0.0645 0.63889,-0.0374 0.11253,0.005 0.22683,0.0173 0.3429,0.0289 0.11289,0.0233 0.22612,0.0536 0.34007,0.0861 0.2353,0.0497 0.44485,0.16545 0.66147,0.26599 0.41451,0.23036 0.77928,0.53234 1.052,0.86113 0.28399,0.32032 0.47449,0.66816 0.61313,0.97085 0.2727,0.61136 0.27869,1.0735 0.27869,1.0735"
       fill="#403339"
       id="path5436" />
    <path
       d="m 41.066,301.11 c -0.22225,-0.0815 -0.45121,-0.10301 -0.68298,-0.0826 -0.0575,-0.25365 -0.13582,-0.49213 -0.23425,-0.70027 -0.37465,-0.78845 -0.69497,-1.2037 -0.97966,-1.3748 0.004,-0.26564 -0.0353,-0.53799 -0.13053,-0.8068 -1.0333,-2.9034 -1.7328,-0.64947 -2.7661,-0.1323 -1.2986,0.65159 -2.5566,-0.078 -2.5566,-0.078 0,0 1.0954,2.1509 2.5721,2.8787 -0.75212,0.11253 -1.4552,-0.15417 -1.4552,-0.15417 0,0 1.0626,1.6602 2.3657,2.6935 -0.5214,0.64065 -0.8576,1.1631 -0.8576,1.1631 0,0 1.6118,-0.6156 2.5619,0.40675 0.7874,0.84455 1.4302,2.7083 2.7541,-0.0737 0.5595,-1.1786 0.49318,-3.3404 -0.5909,-3.7394"
       fill="#a77a29"
       id="path5438" />
    <path
       d="m 74.107,301.11 c 0.2219,-0.0815 0.45121,-0.10301 0.68299,-0.0826 0.0575,-0.25365 0.13581,-0.49318 0.23423,-0.70027 0.37465,-0.78845 0.69497,-1.2037 0.97967,-1.3748 -0.004,-0.26564 0.0353,-0.53905 0.13053,-0.8068 1.0333,-2.9034 1.7328,-0.64947 2.7661,-0.1323 1.2989,0.65053 2.5566,-0.078 2.5566,-0.078 0,0 -1.0954,2.1509 -2.5718,2.8787 0.75176,0.11253 1.4548,-0.15417 1.4548,-0.15417 0,0 -1.0647,1.6602 -2.3664,2.6935 0.52211,0.64065 0.8583,1.1631 0.8583,1.1631 0,0 -1.6118,-0.61665 -2.5633,0.4057 -0.78599,0.8456 -1.4288,2.7093 -2.7527,-0.0737 -0.5595,-1.1776 -0.49318,-3.3394 0.5909,-3.7384"
       fill="#a77a29"
       id="path5440" />
  </g>
</svg>
