<?xml version="1.0" encoding="UTF-8" standalone="no"?>
<svg
   xmlns:dc="http://purl.org/dc/elements/1.1/"
   xmlns:cc="http://creativecommons.org/ns#"
   xmlns:rdf="http://www.w3.org/1999/02/22-rdf-syntax-ns#"
   xmlns:svg="http://www.w3.org/2000/svg"
   xmlns="http://www.w3.org/2000/svg"
   xmlns:sodipodi="http://sodipodi.sourceforge.net/DTD/sodipodi-0.dtd"
   xmlns:inkscape="http://www.inkscape.org/namespaces/inkscape"
   inkscape:version="1.0 (4035a4f, 2020-05-01)"
   sodipodi:docname="nougat.svg"
   id="svg5530"
   viewBox="0 0 48.967135 36.013693"
   version="1.1"
   height="36.013695mm"
   width="48.967136mm">
  <defs
     id="defs5534" />
  <sodipodi:namedview
     inkscape:current-layer="svg5530"
     inkscape:window-maximized="0"
     inkscape:window-y="172"
     inkscape:window-x="721"
     inkscape:cy="68.071389"
     inkscape:cx="92.544127"
     inkscape:zoom="3.5487679"
     showgrid="false"
     id="namedview5532"
     inkscape:window-height="886"
     inkscape:window-width="1272"
     inkscape:pageshadow="2"
     inkscape:pageopacity="0"
     guidetolerance="10"
     gridtolerance="10"
     objecttolerance="10"
     borderopacity="1"
     bordercolor="#666666"
     pagecolor="#ffffff" />
  <metadata
     id="metadata5452">
    <rdf:RDF>
      <cc:Work
         rdf:about="">
        <dc:format>image/svg+xml</dc:format>
        <dc:type
           rdf:resource="http://purl.org/dc/dcmitype/StillImage" />
        <dc:title />
      </cc:Work>
    </rdf:RDF>
  </metadata>
  <path
     id="path5458"
     fill="#a5949a"
     d="m 34.569133,3.4445544 c 0,0 11.658,-5.7355 13.878,-2.4045 2.2204,3.3306 -3.423,16.1649996 -2.8677,17.1889996 0.55492,1.0245 -2.498,2.2151 -3.0533,1.5265 -0.55492,-0.68722 -0.0931,-8.6314 -7.9569,-16.3109996" />
  <path
     id="path5460"
     fill="#f1a6ba"
     d="m 43.879133,15.274554 c -0.6858,-2.8864 -3.2322,-6.3503996 -6.6844,-10.4979996 2.3622,-0.95744 6.5511,-2.5534 8.5594,-2.5534 0.52599,0 0.78175,0.0759 0.87736,0.11395 0.74577,1.5744 -1.3434,8.3441996 -2.1364,10.9129996 -0.24094,0.78069 -0.44697,1.4474 -0.61595,2.0242" />
  <path
     id="path5462"
     fill="#a5949a"
     d="m 14.399133,3.4445544 c 0,0 -11.6579999,-5.7355 -13.87899993,-2.4045 -2.22069997,3.3306 3.42260003,16.1649996 2.86770003,17.1889996 -0.55528,1.0245 2.498,2.2151 3.0533,1.5265 0.55492,-0.68722 0.0935,-8.6314 7.9575999,-16.3109996" />
  <path
     id="path5464"
     fill="#f1a6ba"
     d="m 5.0891331,15.274554 c -0.16898,-0.57679 -0.37501,-1.2435 -0.6156,-2.0242 -0.79269,-2.5675 -2.8787,-9.3252996 -2.1354,-10.9139996 0.0963,-0.0381 0.35172,-0.11289 0.87525,-0.11289 2.0147,0 6.2008,1.596 8.5601999,2.5524 -3.4522999,4.1483 -5.9985999,7.6121996 -6.6843999,10.4989996" />
  <path
     id="path5466"
     fill="#97898f"
     d="m 44.409133,20.514554 c 0,8.2878 -5.0627,12.885 -12.268,14.65 -0.76588,0.18874 -1.56,0.34395 -2.376,0.46637 -1.682,0.2614 -3.4586,0.38277 -5.2959,0.38277 -1.8373,0 -3.6135,-0.12137 -5.2959,-0.38277 -0.81562,-0.12242 -1.6101,-0.27763 -2.376,-0.46637 -7.2050999,-1.765 -12.2679999,-6.362 -12.2679999,-14.65 0,-11.0139996 8.9315999,-20.49499963 19.9399999,-20.49499963 11.014,0 19.94,9.48130003 19.94,20.49499963" />
  <path
     id="path5468"
     fill="#ffffff"
     d="m 33.609133,29.344554 c 0,4.2633 -4.0845,6.0004 -9.1228,6.0004 -5.0383,0 -9.1228,-1.7371 -9.1228,-6.0004 0,-4.264 4.0845,-7.9354 9.1228,-7.9354 5.0383,0 9.1228,3.6714 9.1228,7.9354" />
  <path
     id="path5470"
     fill="#68c86b"
     d="m 17.989133,20.894554 c 0,2.4342 -1.9727,4.4065 -4.4062,4.4065 -2.4335,0 -4.4061999,-1.9724 -4.4061999,-4.4065 0,-2.4328 1.9726999,-4.4062 4.4061999,-4.4062 2.4335,0 4.4062,1.9734 4.4062,4.4062" />
  <path
     id="path5472"
     fill="#403317"
     d="m 13.579133,24.194554 c -1.8179,0 -3.296,-1.4778 -3.296,-3.296 0,-1.8172 1.4781,-3.296 3.296,-3.296 1.8179,0 3.296,1.4789 3.296,3.296 0,1.8182 -1.4781,3.296 -3.296,3.296" />
  <path
     id="path5474"
     fill="#403339"
     d="m 9.1691331,19.684554 c 0,0 0.0268,-0.16687 0.12594,-0.44486 0.0445,-0.14145 0.11924,-0.30373 0.1972,-0.496 0.0949,-0.18273 0.18239,-0.40393 0.32915,-0.61453 0.0699,-0.10726 0.13899,-0.2219 0.2183599,-0.33655 0.0878,-0.10831 0.1778,-0.22015 0.27094,-0.3355 0.19226,-0.22436 0.41733,-0.45049 0.6738,-0.65158 0.13335,-0.0967 0.26847,-0.19474 0.4057,-0.29386 0.1404,-0.0942 0.29986,-0.16193 0.45402,-0.24165 0.30233,-0.17745 0.65688,-0.23708 0.99025,-0.35208 0.34749,-0.0413 0.69921,-0.10548 1.0414,-0.097 0.17145,0.0113 0.34114,0.0222 0.50906,0.0332 0.16792,0.01 0.33302,0.0226 0.4886,0.0684 0.31432,0.0748 0.62053,0.14041 0.89887,0.23141 0.2727,0.10831 0.52741,0.21767 0.76024,0.31857 0.23883,0.0885 0.43709,0.21202 0.61101,0.32314 0.17463,0.10795 0.32703,0.20179 0.45226,0.2787 0.24871,0.15628 0.38559,0.25117 0.38559,0.25117 0,0 -0.16157,-0.0526 -0.43498,-0.15522 -0.27693,-0.0921 -0.64981,-0.27799 -1.1282,-0.40005 -0.23777,-0.0649 -0.49318,-0.13617 -0.75988,-0.21802 -0.27235,-0.06 -0.56445,-0.0882 -0.85937,-0.14639 -0.29527,-0.0667 -0.60643,-0.0201 -0.91687,-0.0487 -0.3108,-0.003 -0.62089,0.0649 -0.93063,0.10301 -0.29492,0.10019 -0.61313,0.14041 -0.88265,0.29598 -0.13652,0.0706 -0.28257,0.12135 -0.41345,0.19791 -0.12806,0.0819 -0.25471,0.16263 -0.37924,0.24235 -0.13159,0.0709 -0.23036,0.18204 -0.34643,0.2667 -0.11077,0.0917 -0.22683,0.17393 -0.31891,0.27765 -0.19685,0.19297 -0.37994,0.381 -0.53128,0.57291 -0.1626299,0.18274 -0.2832799,0.37288 -0.4085199,0.53058 -0.1076,0.16826 -0.21061,0.3122 -0.27834,0.44026 -0.15064,0.24836 -0.22366,0.40005 -0.22366,0.40005" />
  <path
     d="m 24.489133,25.924554 v 2.1805"
     fill="none"
     stroke="#403339"
     stroke-miterlimit="10"
     stroke-width="0.27756"
     id="path5478" />
  <path
     d="m 26.319133,23.474554 c -0.78211,-0.22012 -1.3631,0.24519 -1.8295,0.76766 -0.46672,-0.52247 -1.0478,-0.98778 -1.8295,-0.76766 -0.9719,0.27553 -1.106,0.96167 -0.58349,1.7046 0.51364,0.72956 2.3403,1.2749 2.413,1.2933 0.0727,-0.0183 1.8986,-0.56374 2.4112,-1.2933 0.52422,-0.74295 0.39158,-1.4291 -0.58173,-1.7046"
     fill="#ef2e57"
     id="path5480" />
  <path
     d="m 24.489133,25.024554 c -0.39123,-0.12277 -1.0806,-0.41099 -1.2594,-0.66464 -0.10301,-0.14641 -0.14781,-0.28081 -0.12065,-0.35806 0.0254,-0.0713 0.13865,-0.14288 0.30128,-0.1884 0.0533,-0.0152 0.10407,-0.0229 0.15381,-0.0229 0.20249,0 0.40569,0.127 0.65899,0.41099 0.0677,0.0759 0.16404,0.11924 0.26599,0.11924 0.10195,0 0.19897,-0.0444 0.26635,-0.1203 0.25294,-0.28293 0.45579,-0.40993 0.65863,-0.40993 0.0494,0 0.10125,0.008 0.15487,0.0229 0.16228,0.0455 0.27482,0.11608 0.30057,0.1884 0.0268,0.0772 -0.0187,0.2106 -0.12171,0.35806 -0.17886,0.25365 -0.86713,0.54187 -1.2587,0.66464"
     fill="#ffffff"
     id="path5482" />
  <path
     d="m 19.029133,26.474554 c 0,0 -0.4632,3.7991 5.4578,1.8098"
     fill="none"
     stroke="#403339"
     stroke-linecap="round"
     stroke-miterlimit="10"
     stroke-width="0.55512"
     id="path5484" />
  <path
     d="m 29.929133,26.474554 c 0,0 0.4632,3.7991 -5.4589,1.8098"
     fill="none"
     stroke="#403339"
     stroke-linecap="round"
     stroke-miterlimit="10"
     stroke-width="0.55512"
     id="path5486" />
  <g
     transform="translate(180.00913,-275.50545)"
     id="g5506">
    <path
       d="m -167.27,295.74 c 0,1.3032 0.99378,2.3594 2.2204,2.3594 1.2252,0 2.2204,-1.0562 2.2204,-2.3594 0,-1.3021 -0.99519,-2.3594 -2.2204,-2.3594 -1.2266,0 -2.2204,1.0573 -2.2204,2.3594"
       fill="#ffffff"
       id="path5488" />
    <path
       d="m -165.75,298.93 c 0,0.38382 -0.31115,0.69391 -0.69391,0.69391 -0.38382,0 -0.69392,-0.31009 -0.69392,-0.69391 0,-0.38277 0.3101,-0.69392 0.69392,-0.69392 0.38276,0 0.69391,0.31115 0.69391,0.69392"
       fill="#ffffff"
       id="path5490" />
    <path
       d="m -149.02,296.4 c 0,2.4342 1.9727,4.4065 4.4062,4.4065 2.4335,0 4.4062,-1.9724 4.4062,-4.4065 0,-2.4328 -1.9727,-4.4062 -4.4062,-4.4062 -2.4335,0 -4.4062,1.9734 -4.4062,4.4062"
       fill="#68c86b"
       id="path5492" />
    <path
       d="m -144.62,299.7 c -1.8175,0 -3.296,-1.4778 -3.296,-3.296 0,-1.8172 1.4785,-3.296 3.296,-3.296 1.8179,0 3.296,1.4789 3.296,3.296 0,1.8182 -1.4781,3.296 -3.296,3.296"
       fill="#403317"
       id="path5494" />
    <path
       d="m -140.21,295.19 c 0,0 -0.073,-0.15169 -0.22331,-0.40005 -0.0681,-0.12806 -0.17074,-0.272 -0.27869,-0.44026 -0.12524,-0.1577 -0.24589,-0.34784 -0.40852,-0.53058 -0.15134,-0.19191 -0.33443,-0.37994 -0.53128,-0.57291 -0.0921,-0.10372 -0.20814,-0.18592 -0.31891,-0.27765 -0.11572,-0.0847 -0.21484,-0.19578 -0.34643,-0.2667 -0.12418,-0.0797 -0.25118,-0.1605 -0.37924,-0.24235 -0.13088,-0.0765 -0.27693,-0.12736 -0.41345,-0.19791 -0.26952,-0.15557 -0.58773,-0.19579 -0.88265,-0.29598 -0.30974,-0.0381 -0.61983,-0.10619 -0.93028,-0.10301 -0.31044,0.0286 -0.62159,-0.018 -0.91722,0.0487 -0.29492,0.0582 -0.58702,0.0864 -0.85901,0.14639 -0.26706,0.0818 -0.52247,0.15311 -0.76024,0.21802 -0.47801,0.12206 -0.85125,0.30798 -1.1282,0.40005 -0.27341,0.10265 -0.43498,0.15522 -0.43498,0.15522 0,0 0.13688,-0.0949 0.38559,-0.25117 0.12523,-0.0769 0.27763,-0.17075 0.45226,-0.2787 0.17392,-0.11112 0.37218,-0.23459 0.61101,-0.32314 0.23319,-0.1009 0.48754,-0.21026 0.76024,-0.31857 0.27834,-0.091 0.58455,-0.15662 0.89887,-0.23141 0.15593,-0.0459 0.32103,-0.0586 0.4886,-0.0684 0.16792,-0.0109 0.33796,-0.0219 0.50906,-0.0332 0.34255,-0.008 0.69391,0.0557 1.0414,0.097 0.33337,0.115 0.68792,0.17463 0.99025,0.35208 0.15416,0.0797 0.31362,0.14745 0.45402,0.24165 0.13723,0.0991 0.27235,0.19719 0.4057,0.29386 0.25682,0.20109 0.48154,0.42722 0.6738,0.65158 0.0931,0.11535 0.18345,0.22719 0.27094,0.3355 0.0794,0.11465 0.14851,0.22929 0.21836,0.33655 0.14711,0.2106 0.2346,0.4318 0.3295,0.61453 0.0776,0.19227 0.1524,0.35455 0.19685,0.496 0.0991,0.27799 0.12594,0.44486 0.12594,0.44486"
       fill="#403339"
       id="path5496" />
    <path
       d="m -143.77,295.74 c 0,1.3032 -0.99449,2.3594 -2.2204,2.3594 -1.2262,0 -2.2204,-1.0562 -2.2204,-2.3594 0,-1.3021 0.99413,-2.3594 2.2204,-2.3594 1.2259,0 2.2204,1.0573 2.2204,2.3594"
       fill="#ffffff"
       id="path5498" />
    <path
       d="m -145.3,298.93 c 0,0.38382 0.31009,0.69391 0.69391,0.69391 0.38276,0 0.69391,-0.31009 0.69391,-0.69391 0,-0.38277 -0.31115,-0.69392 -0.69391,-0.69392 -0.38382,0 -0.69391,0.31115 -0.69391,0.69392"
       fill="#ffffff"
       id="path5500" />
    <path
       d="m -168.82,287.42 c 0,0 0.006,-0.4618 0.27905,-1.0732 0.13794,-0.30305 0.32879,-0.65052 0.61313,-0.97121 0.27234,-0.32843 0.63712,-0.6304 1.0516,-0.86077 0.2166,-0.10089 0.42615,-0.21625 0.66146,-0.26599 0.11394,-0.0328 0.22719,-0.0631 0.34008,-0.0864 0.11606,-0.0113 0.23036,-0.0233 0.3429,-0.0286 0.22366,-0.0272 0.43885,0.005 0.63888,0.0374 0.0995,0.0183 0.19649,0.0272 0.28645,0.054 0.0878,0.0339 0.17251,0.0663 0.25435,0.0977 0.15981,0.0639 0.30657,0.1143 0.42122,0.19474 0.11677,0.0737 0.21237,0.14851 0.28998,0.20743 0.15452,0.1203 0.23319,0.19685 0.23319,0.19685 0,0 -0.11783,0.009 -0.30691,0.0113 -0.0942,-3.7e-4 -0.20709,0.002 -0.32985,-0.006 -0.12277,-0.008 -0.266,0.0243 -0.41028,0.0243 -0.14605,0.004 -0.29986,0.0176 -0.45685,0.0547 -0.15769,0.0254 -0.31926,0.0437 -0.47872,0.10195 -0.0801,0.025 -0.16122,0.0437 -0.24306,0.0639 -0.079,0.0335 -0.15805,0.0684 -0.23884,0.0977 -0.16368,0.0519 -0.31714,0.14394 -0.47589,0.22119 -0.1584,0.0794 -0.30762,0.18381 -0.46179,0.27517 -0.14393,0.11008 -0.30021,0.20003 -0.43674,0.31573 -0.28822,0.20955 -0.5401,0.44381 -0.77964,0.63537 -0.45085,0.40534 -0.7941,0.70238 -0.79375,0.70238"
       fill="#403339"
       id="path5502" />
    <path
       d="m -142.22,287.42 c 0,0 -0.3429,-0.29704 -0.7934,-0.70239 -0.23989,-0.19155 -0.49142,-0.42581 -0.77999,-0.63536 -0.13653,-0.11571 -0.29281,-0.20565 -0.43674,-0.31573 -0.15417,-0.0914 -0.30339,-0.19578 -0.46179,-0.27516 -0.15875,-0.0773 -0.31221,-0.16934 -0.47554,-0.22119 -0.0808,-0.0293 -0.16016,-0.0642 -0.23883,-0.0977 -0.0819,-0.0201 -0.16334,-0.0388 -0.24342,-0.0639 -0.1591,-0.0582 -0.32103,-0.0765 -0.47872,-0.10195 -0.15699,-0.0371 -0.3108,-0.0512 -0.45685,-0.0547 -0.14428,0 -0.28716,-0.0328 -0.41028,-0.0243 -0.12276,0.008 -0.23565,0.005 -0.32984,0.006 -0.18909,-0.002 -0.30692,-0.0113 -0.30692,-0.0113 0,0 0.0787,-0.0765 0.23318,-0.19685 0.0776,-0.0589 0.17322,-0.1337 0.29034,-0.20743 0.11465,-0.0804 0.26106,-0.13089 0.42122,-0.19474 0.0815,-0.0314 0.16616,-0.0639 0.254,-0.0977 0.09,-0.0268 0.18732,-0.0356 0.28645,-0.054 0.20038,-0.0325 0.41522,-0.0646 0.63888,-0.0374 0.11254,0.005 0.22684,0.0173 0.3429,0.0286 0.11289,0.0233 0.22614,0.0536 0.34008,0.0864 0.23531,0.0497 0.44486,0.1651 0.66146,0.26599 0.41451,0.23037 0.77964,0.53234 1.052,0.86077 0.28434,0.32069 0.47484,0.66817 0.61313,0.97121 0.2727,0.61136 0.27834,1.0732 0.2787,1.0732"
       fill="#403339"
       id="path5504" />
  </g>
  <g
     transform="translate(180.00913,-275.50545)"
     fill="#453e42"
     id="g5526">
    <path
       d="m -139.02,297.47 3.4251,-0.99307 c -0.011,0.67662 -0.0607,1.3261 -0.14428,1.9484 l -3.2808,-0.95531"
       id="path5508" />
    <path
       d="m -141.4,300.95 5.5182,-1.6034 c -0.20003,1.0601 -0.49989,2.0426 -0.89394,2.9535 l -4.6242,-1.3501"
       id="path5510" />
    <path
       d="m -137.25,303.28 c -0.33867,0.63748 -0.72743,1.2368 -1.1606,1.7921 l -2.498,-0.72636 3.6587,-1.0658"
       id="path5512" />
    <path
       d="m -172.03,297.52 -3.4251,-0.99308 c 0.0109,0.67663 0.0607,1.3261 0.14429,1.9484 l 3.2808,-0.95532"
       id="path5514" />
    <path
       d="m -169.65,301 -5.5182,-1.6034 c 0.20002,1.0594 0.49988,2.0426 0.89394,2.9534 l 4.6242,-1.3501"
       id="path5516" />
    <path
       d="m -173.8,303.32 c 0.33867,0.63853 0.72743,1.2382 1.1606,1.7932 l 2.498,-0.72637 -3.6587,-1.0668"
       id="path5518" />
    <path
       d="m -155.52,275.53 c 0.8883,0 1.76,0.061 2.6201,0.18344 l -0.37712,1.0322 -2.2207,6.0508 -2.2204,-6.0508 -0.38311,-1.0379 c 0.84384,-0.11677 1.7043,-0.1778 2.5813,-0.1778"
       id="path5520" />
    <path
       d="m -161.38,276.45 c 1.0213,-0.33267 2.0708,-0.57679 3.1535,-0.73272 l -1.7099,4.663 -1.4436,-3.9303"
       id="path5522" />
    <path
       d="m -149.62,276.46 -1.4376,3.9194 -1.7099,-4.6524 c 1.0767,0.14958 2.1318,0.4004 3.1475,0.73307"
       id="path5524" />
  </g>
</svg>
