<?xml version="1.0" encoding="UTF-8" standalone="no"?>
<svg
   xmlns:dc="http://purl.org/dc/elements/1.1/"
   xmlns:cc="http://creativecommons.org/ns#"
   xmlns:rdf="http://www.w3.org/1999/02/22-rdf-syntax-ns#"
   xmlns:svg="http://www.w3.org/2000/svg"
   xmlns="http://www.w3.org/2000/svg"
   xmlns:sodipodi="http://sodipodi.sourceforge.net/DTD/sodipodi-0.dtd"
   xmlns:inkscape="http://www.inkscape.org/namespaces/inkscape"
   inkscape:version="1.0 (4035a4f, 2020-05-01)"
   sodipodi:docname="spooks.svg"
   id="svg5598"
   viewBox="0 0 48.957137 36.014208"
   version="1.1"
   height="36.01421mm"
   width="48.957138mm">
  <defs
     id="defs5602" />
  <sodipodi:namedview
     inkscape:current-layer="svg5598"
     inkscape:window-maximized="0"
     inkscape:window-y="197"
     inkscape:window-x="674"
     inkscape:cy="78.150641"
     inkscape:cx="117.78323"
     inkscape:zoom="3.5487679"
     showgrid="false"
     id="namedview5600"
     inkscape:window-height="794"
     inkscape:window-width="1221"
     inkscape:pageshadow="2"
     inkscape:pageopacity="0"
     guidetolerance="10"
     gridtolerance="10"
     objecttolerance="10"
     borderopacity="1"
     bordercolor="#666666"
     pagecolor="#ffffff" />
  <metadata
     id="metadata5536">
    <rdf:RDF>
      <cc:Work
         rdf:about="">
        <dc:format>image/svg+xml</dc:format>
        <dc:type
           rdf:resource="http://purl.org/dc/dcmitype/StillImage" />
        <dc:title />
      </cc:Work>
    </rdf:RDF>
  </metadata>
  <path
     id="path5542"
     fill="#201e1d"
     d="m 34.559133,3.4453502 c 0,0 11.658,-5.7362 13.878,-2.4056 2.2204,3.3309 -3.423,16.1649998 -2.8677,17.1889998 0.55492,1.0238 -2.498,2.2154 -3.0533,1.5272 -0.55491,-0.68756 -0.0931,-8.6321 -7.9569,-16.3109998" />
  <path
     id="path5544"
     fill="#f1a6ba"
     d="m 43.589133,16.02535 c -0.68544,-2.8857 -2.9034,-6.9969998 -6.3556,-11.1449998 2.3622,-0.95638 6.5077,-2.6596 8.516,-2.6596 0.526,0 0.78176,0.07479 0.87701,0.11254 0.74613,1.5755 -1.343,8.3442998 -2.1364,10.9139998 -0.2406,0.7807 -0.73166,2.201 -0.901,2.7785" />
  <path
     id="path5546"
     fill="#201e1d"
     d="m 14.399133,3.4453502 c 0,0 -11.6579999,-5.7362 -13.87899993,-2.4056 -2.22069997,3.3309 3.42260003,16.1649998 2.86770003,17.1889998 -0.55527,1.0238 2.498,2.2154 3.0529,1.5272 0.55527,-0.68756 0.0938,-8.6321 7.9579999,-16.3109998" />
  <path
     id="path5548"
     fill="#f1a6ba"
     d="m 5.3591331,16.02535 c -0.16934,-0.5775 -0.64735,-1.9978 -0.88794,-2.7785 -0.7927,-2.5675 -2.8787,-9.3252998 -2.1354,-10.9139998 0.0963,-0.03845 0.35172,-0.11218 0.87524,-0.11218 2.0147,0 6.012,1.7999 8.3713999,2.7559 C 8.1301331,9.1248702 6.0448331,13.13917 5.3590331,16.02557" />
  <path
     id="path5550"
     fill="#201e1d"
     d="m 44.399133,20.51535 c 0,3.7472 -1.0375,6.7444 -2.8416,9.0593 -0.25541,0.32773 -0.52741,0.64347 -0.81633,0.94897 -2.1424,2.2765 -5.129,3.7864 -8.6099,4.6411 -0.76588,0.18803 -1.5596,0.34431 -2.376,0.46567 -1.6817,0.26176 -3.4583,0.38382 -5.2959,0.38382 -1.8373,0 -3.6139,-0.12206 -5.2959,-0.38382 -0.81598,-0.12136 -1.6097,-0.27764 -2.3756,-0.46567 -3.4696,-0.85478 -6.4452,-2.3594 -8.5936999,-4.6189 -0.28822,-0.29951 -0.56056,-0.61525 -0.81562,-0.94298 -1.8158,-2.3209 -2.8593,-5.3241 -2.8593,-9.0876 0,-11.0129998 8.9319999,-20.49499983 19.9399999,-20.49499983 11.014,0 19.94,9.48160003 19.94,20.49499983" />
  <path
     id="path5552"
     fill="#f5f5f5"
     d="m 40.739133,30.52335 c -2.1424,2.2765 -5.129,3.7864 -8.6099,4.6411 -0.76588,0.18803 -1.5596,0.34431 -2.376,0.46567 -1.6817,0.26176 -3.4583,0.38382 -5.2959,0.38382 -1.8373,0 -3.6139,-0.12206 -5.2959,-0.38382 -0.81598,-0.12136 -1.6097,-0.27764 -2.3756,-0.46567 -3.4696,-0.85478 -6.4452,-2.3594 -8.5936999,-4.6189 3.6085999,-5.2677 9.5591999,-8.8032 16.2819999,-8.8032 6.7229,0 12.657,3.5295 16.265,8.781" />
  <path
     id="path5554"
     fill="#68c86b"
     d="m 17.979133,20.89635 c 0,2.4338 -1.9727,4.4062 -4.4062,4.4062 -2.4335,0 -4.4061999,-1.9724 -4.4061999,-4.4062 0,-2.4342 1.9726999,-4.4062 4.4061999,-4.4062 2.4335,0 4.4062,1.972 4.4062,4.4062" />
  <path
     id="path5556"
     fill="#403317"
     d="m 13.569133,24.19235 c -1.8179,0 -3.296,-1.4788 -3.296,-3.296 0,-1.8172 1.4781,-3.296 3.296,-3.296 1.8175,0 3.296,1.4788 3.296,3.296 0,1.8172 -1.4785,3.296 -3.296,3.296" />
  <path
     id="path5558"
     fill="#403339"
     d="m 9.1691331,19.68235 c 0,0 0.0265,-0.16722 0.12594,-0.44521 0.0444,-0.14146 0.11924,-0.30374 0.19685,-0.49636 0.0949,-0.18238 0.18274,-0.40358 0.32949,-0.61348 0.0698,-0.1076 0.139,-0.22296 0.2183699,-0.3369 0.0875,-0.10865 0.1778,-0.22048 0.27094,-0.33584 0.19226,-0.22472 0.41698,-0.4505 0.6738,-0.65158 0.133,-0.09666 0.26847,-0.19438 0.4057,-0.29386 0.14005,-0.09419 0.29986,-0.16263 0.45402,-0.24166 0.30198,-0.1778 0.65652,-0.23707 0.99025,-0.35207 0.34748,-0.04127 0.6992,-0.10583 1.0414,-0.09666 0.17145,0.01093 0.34113,0.02186 0.50906,0.03281 0.16757,0.0099 0.33267,0.02257 0.48859,0.06844 0.31433,0.07479 0.62054,0.14041 0.89888,0.23107 0.2727,0.10866 0.52705,0.21802 0.76024,0.31926 0.23883,0.08819 0.43709,0.21202 0.61101,0.32314 0.17462,0.1076 0.32702,0.20144 0.45261,0.27834 0.24836,0.15593 0.38524,0.25118 0.38524,0.25118 0,0 -0.16158,-0.05256 -0.43498,-0.15487 -0.27693,-0.09243 -0.65017,-0.27869 -1.1282,-0.4004 -0.23777,-0.06526 -0.49319,-0.13617 -0.75989,-0.21802 -0.27234,-0.05997 -0.56444,-0.08855 -0.85936,-0.14676 -0.29563,-0.06632 -0.60678,-0.01939 -0.91687,-0.04833 -0.31115,-0.0032 -0.62124,0.06491 -0.93063,0.10301 -0.29492,0.09984 -0.61313,0.14041 -0.88265,0.29598 -0.13652,0.0702 -0.28257,0.12135 -0.41346,0.19755 -0.12841,0.08184 -0.25505,0.16298 -0.37923,0.24236 -0.13159,0.07126 -0.23037,0.18274 -0.34643,0.26706 -0.11077,0.09172 -0.22719,0.17392 -0.31891,0.27728 -0.19685,0.19332 -0.37994,0.38135 -0.53128,0.57326 -0.1626299,0.18274 -0.2832799,0.37324 -0.4085199,0.53093 -0.1076,0.16792 -0.21061,0.31221 -0.27869,0.43992 -0.15029,0.24836 -0.22331,0.4004 -0.22331,0.4004" />
  <g
     transform="translate(-106.30087,-37.93365)"
     fill="none"
     stroke="#403339"
     stroke-linecap="round"
     stroke-miterlimit="10"
     id="g5568">
    <path
       d="m 130.78,63.856 v 2.1798"
       stroke-width="0.27756"
       id="path5562" />
    <path
       d="m 125.32,64.41 c 0,0 -0.4632,3.7987 5.4578,1.8098"
       stroke-width="0.55512"
       id="path5564" />
    <path
       d="m 136.22,64.41 c 0,0 0.4632,3.7987 -5.4589,1.8098"
       stroke-width="0.55512"
       id="path5566" />
  </g>
  <g
     transform="translate(-106.30087,-37.93365)"
     id="g5580">
    <path
       d="m 119.03,58.172 c 0,1.3032 0.99377,2.3594 2.2204,2.3594 1.2252,0 2.2204,-1.0562 2.2204,-2.3594 0,-1.3032 -0.99519,-2.359 -2.2204,-2.359 -1.2266,0 -2.2204,1.0559 -2.2204,2.359"
       fill="#ffffff"
       id="path5570" />
    <path
       d="m 120.56,61.356 c 0,0.38276 -0.31115,0.69391 -0.69391,0.69391 -0.38383,0 -0.69392,-0.31115 -0.69392,-0.69391 0,-0.38347 0.31009,-0.69391 0.69392,-0.69391 0.38276,0 0.69391,0.31044 0.69391,0.69391"
       fill="#ffffff"
       id="path5572" />
    <path
       d="m 137.28,58.83 c 0,2.4338 1.9727,4.4062 4.4062,4.4062 2.4335,0 4.4062,-1.9724 4.4062,-4.4062 0,-2.4342 -1.9727,-4.4062 -4.4062,-4.4062 -2.4335,0 -4.4062,1.972 -4.4062,4.4062"
       fill="#68c86b"
       id="path5574" />
    <path
       d="m 141.69,62.126 c -1.8175,0 -3.296,-1.4788 -3.296,-3.296 0,-1.8172 1.4785,-3.296 3.296,-3.296 1.8179,0 3.296,1.4788 3.296,3.296 0,1.8172 -1.4781,3.296 -3.296,3.296"
       fill="#403317"
       id="path5576" />
    <path
       d="m 146.09,57.616 c 0,0 -0.073,-0.15205 -0.22366,-0.4004 -0.0677,-0.12771 -0.17075,-0.27199 -0.27835,-0.43992 -0.12523,-0.15769 -0.24588,-0.34819 -0.40851,-0.53093 -0.15134,-0.19191 -0.33444,-0.37994 -0.53129,-0.57326 -0.0917,-0.10336 -0.20813,-0.18556 -0.31891,-0.27728 -0.11606,-0.08431 -0.21484,-0.19579 -0.34642,-0.26705 -0.12418,-0.07938 -0.25083,-0.16051 -0.37924,-0.24236 -0.13088,-0.0762 -0.27693,-0.12735 -0.41346,-0.19755 -0.26952,-0.15558 -0.58772,-0.19615 -0.88265,-0.29598 -0.30973,-0.0381 -0.61947,-0.10618 -0.93062,-0.10301 -0.3101,0.02893 -0.62125,-0.01799 -0.91687,0.04833 -0.29493,0.05821 -0.58703,0.08678 -0.85937,0.14676 -0.2667,0.08184 -0.52211,0.15275 -0.75988,0.21802 -0.47802,0.12171 -0.85126,0.30798 -1.1282,0.4004 -0.2734,0.10231 -0.43497,0.15487 -0.43497,0.15487 0,0 0.13688,-0.09525 0.38558,-0.25118 0.12524,-0.07691 0.27764,-0.17074 0.45227,-0.27834 0.17391,-0.11112 0.37218,-0.23495 0.61101,-0.32314 0.23283,-0.10125 0.48754,-0.21061 0.76023,-0.31926 0.27834,-0.09066 0.58456,-0.15628 0.89888,-0.23107 0.15593,-0.04586 0.32068,-0.05856 0.4886,-0.06844 0.16792,-0.01093 0.33796,-0.02188 0.50906,-0.03281 0.34254,-0.0092 0.69391,0.05539 1.0414,0.09666 0.33372,0.11501 0.68827,0.17427 0.99024,0.35207 0.15417,0.07902 0.31398,0.14746 0.45438,0.24165 0.13688,0.09948 0.27235,0.1972 0.40534,0.29386 0.25683,0.20108 0.48154,0.42686 0.67381,0.65158 0.0931,0.11536 0.18344,0.22719 0.27093,0.33584 0.0794,0.11395 0.14852,0.22931 0.21837,0.3369 0.14676,0.2099 0.2346,0.43109 0.32914,0.61348 0.078,0.19262 0.15276,0.3549 0.19721,0.49636 0.0995,0.27799 0.12594,0.44521 0.12594,0.44521"
       fill="#403339"
       id="path5578" />
  </g>
  <g
     transform="translate(-106.30087,-37.93365)"
     fill="#ffffff"
     id="g5590">
    <path
       d="m 142.53,58.172 c 0,1.3032 -0.99448,2.3594 -2.2204,2.3594 -1.2263,0 -2.2204,-1.0562 -2.2204,-2.3594 0,-1.3032 0.99412,-2.359 2.2204,-2.359 1.2259,0 2.2204,1.0559 2.2204,2.359"
       id="path5582" />
    <path
       d="m 141,61.356 c 0,0.38276 0.3101,0.69391 0.69392,0.69391 0.38276,0 0.69391,-0.31115 0.69391,-0.69391 0,-0.38347 -0.31115,-0.69391 -0.69391,-0.69391 C 141.3101,60.66209 141,60.97253 141,61.356"
       id="path5584" />
    <path
       d="m 117.48,49.844 c 0,0 0.006,-0.46214 0.2787,-1.0739 0.13864,-0.30233 0.32878,-0.65017 0.61312,-0.97049 0.2727,-0.32879 0.63747,-0.63041 1.052,-0.86078 0.2166,-0.1009 0.42615,-0.21625 0.66146,-0.266 0.11394,-0.03246 0.22718,-0.06315 0.34007,-0.08678 0.11607,-0.01129 0.23037,-0.02293 0.3429,-0.02822 0.22366,-0.02752 0.43886,0.0046 0.63888,0.03669 0.0995,0.01905 0.1965,0.02752 0.28646,0.05468 0.0878,0.03351 0.17251,0.06597 0.254,0.09737 0.16016,0.06421 0.30692,0.11465 0.42122,0.19473 0.11712,0.07408 0.21272,0.14887 0.29033,0.20743 0.15452,0.12065 0.23319,0.1972 0.23319,0.1972 0,0 -0.11783,0.0088 -0.30692,0.01094 -0.0942,-3.44e-4 -0.20708,0.0028 -0.32985,-0.006 -0.12312,-0.0081 -0.26599,0.0247 -0.41028,0.02505 -0.14605,0.0035 -0.29986,0.01764 -0.4572,0.05433 -0.15734,0.0254 -0.31926,0.0441 -0.47836,0.10195 -0.0801,0.02505 -0.16122,0.0441 -0.24342,0.06385 -0.0787,0.03387 -0.15769,0.06844 -0.23848,0.09772 -0.16369,0.05221 -0.31714,0.14464 -0.47589,0.22154 -0.1584,0.07938 -0.30763,0.1838 -0.46179,0.27481 -0.14393,0.11042 -0.30021,0.20038 -0.43674,0.31609 -0.28822,0.20955 -0.5401,0.4438 -0.77964,0.63535 -0.45085,0.40499 -0.79375,0.70238 -0.79375,0.70238"
       id="path5586" />
    <path
       d="m 144.08,49.844 c 0,0 -0.3429,-0.29739 -0.79339,-0.70238 -0.23989,-0.19156 -0.49178,-0.4258 -0.78,-0.63536 -0.13652,-0.11571 -0.2928,-0.20567 -0.43673,-0.31609 -0.15417,-0.09102 -0.30339,-0.19544 -0.46179,-0.27482 -0.15875,-0.07691 -0.31221,-0.16933 -0.4759,-0.22154 -0.0808,-0.02928 -0.15981,-0.06385 -0.23883,-0.09772 -0.0815,-0.01976 -0.16298,-0.03881 -0.24306,-0.06385 -0.15946,-0.05786 -0.32103,-0.07655 -0.47837,-0.10195 -0.15734,-0.03669 -0.31115,-0.0508 -0.4572,-0.05433 -0.14429,-3.44e-4 -0.28716,-0.03316 -0.41028,-0.02505 -0.12277,0.0088 -0.23566,0.0056 -0.32985,0.006 -0.18909,-0.0021 -0.30691,-0.01094 -0.30691,-0.01094 0,0 0.0787,-0.07655 0.23318,-0.1972 0.0776,-0.05856 0.17322,-0.13335 0.28999,-0.20743 0.115,-0.08008 0.2614,-0.13053 0.42156,-0.19473 0.0815,-0.0314 0.16616,-0.06385 0.254,-0.09737 0.09,-0.02716 0.18698,-0.03563 0.28646,-0.05468 0.20003,-0.0321 0.41557,-0.06421 0.63888,-0.03669 0.11254,0.0053 0.22684,0.01693 0.3429,0.02822 0.11289,0.02364 0.22613,0.05433 0.34008,0.08678 0.2353,0.04974 0.44485,0.1651 0.66146,0.266 0.41451,0.23036 0.77928,0.53199 1.052,0.86078 0.28399,0.32032 0.47449,0.66816 0.61313,0.97049 0.2727,0.61172 0.27869,1.0739 0.27869,1.0739"
       id="path5588" />
  </g>
  <path
     d="m 26.309133,23.47835 c -0.78211,-0.21943 -1.3631,0.24518 -1.8295,0.768 -0.46673,-0.52282 -1.0478,-0.98742 -1.8295,-0.768 -0.97225,0.27552 -1.106,0.96238 -0.58349,1.705 0.51329,0.72849 2.3403,1.2746 2.413,1.2933 0.0727,-0.01871 1.8983,-0.5648 2.4112,-1.2933 0.52423,-0.7426 0.39159,-1.4295 -0.58173,-1.705"
     fill="#ef2e57"
     id="path5592" />
  <path
     d="m 24.459133,25.10335 c -0.39158,-0.12242 -1.0809,-0.41134 -1.2591,-0.66463 -0.10336,-0.14676 -0.14817,-0.28116 -0.12136,-0.35842 0.0258,-0.07161 0.139,-0.14252 0.30163,-0.18838 0.0536,-0.01553 0.10407,-0.02188 0.15452,-0.02188 0.20214,0 0.40499,0.12594 0.65793,0.40993 0.0677,0.07585 0.16439,0.11853 0.26634,0.11853 0.10196,0 0.19827,-0.04339 0.266,-0.11924 0.25329,-0.28328 0.45614,-0.40922 0.65828,-0.40922 0.0494,0 0.10125,0.0078 0.15487,0.02188 0.16263,0.04586 0.27482,0.11677 0.30057,0.18803 0.0275,0.07761 -0.018,0.21132 -0.12171,0.35807 -0.17815,0.254 -0.86713,0.54292 -1.258,0.66534"
     fill="#ffffff"
     id="path5594" />
</svg>
