<?xml version="1.0" encoding="UTF-8" standalone="no"?>
<svg
   xmlns:dc="http://purl.org/dc/elements/1.1/"
   xmlns:cc="http://creativecommons.org/ns#"
   xmlns:rdf="http://www.w3.org/1999/02/22-rdf-syntax-ns#"
   xmlns:svg="http://www.w3.org/2000/svg"
   xmlns="http://www.w3.org/2000/svg"
   xmlns:sodipodi="http://sodipodi.sourceforge.net/DTD/sodipodi-0.dtd"
   xmlns:inkscape="http://www.inkscape.org/namespaces/inkscape"
   width="48.967136mm"
   height="36.018166mm"
   version="1.1"
   viewBox="0 0 48.967135 36.018164"
   id="svg5666"
   sodipodi:docname="tibou.svg"
   inkscape:version="1.0 (4035a4f, 2020-05-01)">
  <defs
     id="defs5670" />
  <sodipodi:namedview
     inkscape:document-rotation="0"
     pagecolor="#ffffff"
     bordercolor="#666666"
     borderopacity="1"
     objecttolerance="10"
     gridtolerance="10"
     guidetolerance="10"
     inkscape:pageopacity="0"
     inkscape:pageshadow="2"
     inkscape:window-width="1462"
     inkscape:window-height="910"
     id="namedview5668"
     showgrid="false"
     inkscape:zoom="3.5487679"
     inkscape:cx="92.55119"
     inkscape:cy="68.065606"
     inkscape:window-x="0"
     inkscape:window-y="23"
     inkscape:window-maximized="0"
     inkscape:current-layer="svg5666" />
  <metadata
     id="metadata5604">
    <rdf:RDF>
      <cc:Work
         rdf:about="">
        <dc:format>image/svg+xml</dc:format>
        <dc:type
           rdf:resource="http://purl.org/dc/dcmitype/StillImage" />
        <dc:title />
      </cc:Work>
    </rdf:RDF>
  </metadata>
  <path
     style="fill:#201e1d;fill-opacity:1"
     d="m 34.569002,3.4450243 c 0,0 11.658,-5.7362 13.878,-2.4049 2.2207,3.3309 -3.4226,16.1649997 -2.8677,17.1889997 0.55527,1.0238 -2.498,2.2151 -3.0529,1.5265 -0.55527,-0.68756 -0.0935,-8.6314 -7.9572,-16.3109997"
     fill="#f5f5f5"
     id="path5610" />
  <path
     d="m 43.879002,15.272024 c -0.6858,-2.8861 -3.2322,-6.3499997 -6.6841,-10.4969997 2.3618,-0.95744 6.5507,-2.5534 8.5594,-2.5534 0.52564,0 0.78176,0.07479 0.87701,0.11289 0.74612,1.5752 -1.3434,8.3452997 -2.1364,10.9139997 -0.24059,0.7807 -0.44661,1.4474 -0.61595,2.0242"
     fill="#f1a6ba"
     id="path5612" />
  <path
     style="fill:#201e1d;fill-opacity:1"
     d="m 14.399002,3.4450243 c 0,0 -11.6580003,-5.7362 -13.87900026,-2.4049 -2.22040004,3.3309 3.42299996,16.1649997 2.86769996,17.1889997 -0.55492,1.0238 2.498,2.2151 3.0533,1.5265 0.55527,-0.68756 0.0938,-8.6314 7.9576003,-16.3109997"
     fill="#f5f5f5"
     id="path5614" />
  <path
     d="m 5.0890017,15.272024 c -0.16933,-0.57679 -0.37536,-1.2435 -0.61595,-2.0242 -0.79234,-2.5672 -2.8787,-9.3252997 -2.1354,-10.9139997 0.0967,-0.0381 0.35172,-0.11289 0.87559,-0.11289 2.0144,0 6.2008,1.596 8.5598003,2.5523 -3.4519003,4.1483 -5.9983003,7.6121997 -6.6841003,10.4979997"
     fill="#f1a6ba"
     id="path5616" />
  <path
     d="m 44.409002,20.519024 c 0,8.2878 -5.0627,12.884 -12.268,14.65 -0.76624,0.18803 -1.5596,0.34361 -2.3756,0.46567 -1.6824,0.2607 -3.4586,0.38347 -5.2959,0.38347 -1.838,0 -3.6142,-0.12277 -5.2959,-0.38347 -0.81633,-0.12206 -1.6101,-0.27764 -2.376,-0.46567 -2.9757,-0.72743 -5.5792,-1.9427 -7.6221003,-3.6978 -2.8977,-2.492 -4.6461,-6.084 -4.6461,-10.952 0,-7.2838 3.9081,-13.9009997 9.7423003,-17.5419997 2.9866,-1.8655 6.4728,-2.95309995 10.198,-2.95309995 11.013,0 19.94,9.48159995 19.94,20.49499965"
     fill="#f5f5f5"
     id="path5618" />
  <path
     d="m 19.599002,19.281024 c -2.6592,6.0226 -9.8534003,5.407 -10.4200003,12.19 -2.8977,-2.492 -4.6461,-6.084 -4.6461,-10.952 0,-7.2838 3.9081,-13.9009997 9.7423003,-17.5419997 2.2871,3.314 7.4161,11.5689997 5.3238,16.3039997"
     fill="#201e1d"
     id="path5620" />
  <path
     d="m 29.339002,19.281024 c 2.6592,6.0233 9.8534,5.407 10.42,12.191 2.8977,-2.4927 4.6457,-6.0847 4.6457,-10.953 0,-7.2834 -3.9081,-13.9009997 -9.7423,-17.5419997 -2.2871,3.314 -7.4157,11.5689997 -5.3234,16.3039997"
     fill="#201e1d"
     id="path5622" />
  <path
     d="m 17.989002,20.897024 c 0,2.4342 -1.9727,4.4062 -4.4065,4.4062 -2.4335,0 -4.4062003,-1.972 -4.4062003,-4.4062 0,-2.4335 1.9727003,-4.4062 4.4062003,-4.4062 2.4338,0 4.4065,1.9727 4.4065,4.4062"
     fill="#68c86b"
     id="path5624" />
  <path
     d="m 13.579002,24.193024 c -1.8175,0 -3.296,-1.4778 -3.296,-3.296 0,-1.8172 1.4785,-3.296 3.296,-3.296 1.8179,0 3.2964,1.4788 3.2964,3.296 0,1.8182 -1.4785,3.296 -3.2964,3.296"
     fill="#403317"
     id="path5626" />
  <path
     d="m 9.1790017,19.683024 c 0,0 0.0268,-0.16686 0.12594,-0.4452 0.0445,-0.14146 0.11959,-0.30374 0.19721,-0.49636 0.0949,-0.18239 0.18238,-0.40358 0.32949,-0.61348 0.0699,-0.10724 0.13899,-0.22296 0.2183703,-0.33655 0.0875,-0.10866 0.1778,-0.22084 0.27058,-0.33584 0.19226,-0.22472 0.41734,-0.4505 0.67416,-0.65193 0.13335,-0.09631 0.26846,-0.19403 0.40569,-0.29351 0.14041,-0.09454 0.29986,-0.16263 0.45403,-0.24165 0.30198,-0.1778 0.65652,-0.23707 0.99024,-0.35207 0.34749,-0.04127 0.69886,-0.10583 1.0414,-0.09666 0.1711,0.01093 0.34114,0.02188 0.50906,0.03281 0.16757,0.0095 0.33267,0.02257 0.4886,0.06844 0.31397,0.07444 0.62018,0.14005 0.89888,0.23142 0.2727,0.1083 0.52705,0.21766 0.76023,0.31856 0.23883,0.08855 0.43674,0.21202 0.61102,0.3235 0.17427,0.1076 0.32667,0.20144 0.4519,0.27834 0.24906,0.15593 0.38594,0.25082 0.38594,0.25082 0,0 -0.16157,-0.05256 -0.43533,-0.15452 -0.27657,-0.09243 -0.64981,-0.27869 -1.1278,-0.40075 -0.23777,-0.06491 -0.49353,-0.13582 -0.76023,-0.21766 -0.27199,-0.06032 -0.56445,-0.08819 -0.85902,-0.14676 -0.29562,-0.06632 -0.60677,-0.01939 -0.91722,-0.04833 -0.31044,-0.0032 -0.62053,0.06491 -0.93063,0.10301 -0.29492,0.09984 -0.61312,0.14041 -0.88229,0.29598 -0.13688,0.0702 -0.28293,0.121 -0.41346,0.19756 -0.12806,0.08184 -0.25506,0.16298 -0.37959,0.24236 -0.13123,0.07126 -0.23036,0.18239 -0.34643,0.26706 -0.11041,0.09172 -0.22683,0.17357 -0.31855,0.27728 -0.19685,0.19332 -0.37995,0.38135 -0.53129,0.57326 -0.1626303,0.18274 -0.2832803,0.37289 -0.4085103,0.53058 -0.10795,0.16792 -0.21061,0.31221 -0.2787,0.43991 -0.15028,0.24871 -0.22366,0.4004 -0.22366,0.4004"
     fill="#403339"
     id="path5628" />
  <g
     id="g5638"
     stroke-miterlimit="10"
     stroke-linecap="round"
     stroke="#403339"
     fill="none"
     transform="translate(-107.871,-41.022976)">
    <path
       id="path5632"
       stroke-width="0.27756"
       d="m 132.36,66.945 v 2.1805" />
    <path
       id="path5634"
       stroke-width="0.55512"
       d="m 126.9,67.501 c 0,0 -0.46285,3.7991 5.4582,1.8094" />
    <path
       id="path5636"
       stroke-width="0.55512"
       d="m 137.8,67.501 c 0,0 0.46285,3.7991 -5.4592,1.8094" />
  </g>
  <g
     id="g5662"
     transform="translate(-107.871,-41.022976)">
    <path
       id="path5640"
       fill="#ffffff"
       d="m 120.61,61.262 c 0,1.3032 0.99378,2.359 2.2207,2.359 1.2252,0 2.2204,-1.0559 2.2204,-2.359 0,-1.3028 -0.99518,-2.3594 -2.2204,-2.3594 -1.227,0 -2.2207,1.0566 -2.2207,2.3594" />
    <path
       id="path5642"
       fill="#ffffff"
       d="m 122.13,64.446 c 0,0.38382 -0.31115,0.69391 -0.69392,0.69391 -0.38382,0 -0.69391,-0.31009 -0.69391,-0.69391 0,-0.38276 0.31009,-0.69392 0.69391,-0.69392 0.38277,0 0.69392,0.31115 0.69392,0.69392" />
    <path
       id="path5644"
       fill="#68c86b"
       d="m 138.86,61.92 c 0,2.4342 1.9731,4.4062 4.4066,4.4062 2.4335,0 4.4062,-1.972 4.4062,-4.4062 0,-2.4335 -1.9727,-4.4062 -4.4062,-4.4062 -2.4335,0 -4.4066,1.9727 -4.4066,4.4062" />
    <path
       id="path5646"
       fill="#403317"
       d="m 143.26,65.216 c -1.8179,0 -3.296,-1.4778 -3.296,-3.296 0,-1.8172 1.4781,-3.296 3.296,-3.296 1.8175,0 3.296,1.4788 3.296,3.296 0,1.8182 -1.4785,3.296 -3.296,3.296" />
    <path
       id="path5648"
       fill="#403339"
       d="m 147.67,60.706 c 0,0 -0.0734,-0.15169 -0.22366,-0.4004 -0.0681,-0.1277 -0.17074,-0.27199 -0.27869,-0.43992 -0.12524,-0.15769 -0.24589,-0.34784 -0.40852,-0.53058 -0.15099,-0.19191 -0.33443,-0.37994 -0.53128,-0.57326 -0.0917,-0.10372 -0.20814,-0.18556 -0.31856,-0.27728 -0.11606,-0.08467 -0.21484,-0.19579 -0.34643,-0.26705 -0.12453,-0.07937 -0.25118,-0.16052 -0.37959,-0.24236 -0.13052,-0.07655 -0.27657,-0.12735 -0.41345,-0.19756 -0.26917,-0.15558 -0.58738,-0.19614 -0.8823,-0.29598 -0.31009,-0.0381 -0.62018,-0.10619 -0.93063,-0.10301 -0.31044,0.02893 -0.62159,-0.01799 -0.91687,0.04833 -0.29492,0.05856 -0.58737,0.08643 -0.85936,0.14676 -0.2667,0.08184 -0.52247,0.15275 -0.75989,0.21766 -0.47836,0.12206 -0.8516,0.30833 -1.1282,0.40076 -0.27376,0.10195 -0.43533,0.15452 -0.43533,0.15452 0,0 0.13688,-0.0949 0.38594,-0.25082 0.12524,-0.07691 0.27764,-0.17074 0.45191,-0.27834 0.17427,-0.11148 0.37218,-0.23495 0.61101,-0.3235 0.23319,-0.10089 0.48789,-0.21025 0.76024,-0.31856 0.27869,-0.09137 0.5849,-0.15698 0.89887,-0.23142 0.15593,-0.04586 0.32103,-0.05891 0.48895,-0.06844 0.16757,-0.01093 0.33761,-0.02188 0.50906,-0.03281 0.3422,-0.0092 0.69392,0.05539 1.0414,0.09666 0.33338,0.11501 0.68792,0.17427 0.9899,0.35207 0.15416,0.07902 0.31362,0.14711 0.45402,0.24165 0.13723,0.09948 0.2727,0.1972 0.4057,0.29351 0.25682,0.20144 0.48189,0.42722 0.67416,0.65193 0.0928,0.11501 0.18309,0.22719 0.27058,0.33584 0.0794,0.1136 0.14852,0.22931 0.21837,0.33655 0.1471,0.2099 0.23459,0.4311 0.32949,0.61348 0.0776,0.19262 0.15275,0.35489 0.1972,0.49636 0.0991,0.27834 0.12594,0.44521 0.12594,0.44521" />
    <path
       id="path5650"
       fill="#ffffff"
       d="m 144.11,61.262 c 0,1.3032 -0.99483,2.359 -2.2204,2.359 -1.2263,0 -2.2207,-1.0559 -2.2207,-2.359 0,-1.3028 0.99448,-2.3594 2.2207,-2.3594 1.2256,0 2.2204,1.0566 2.2204,2.3594" />
    <path
       id="path5652"
       fill="#ffffff"
       d="m 142.58,64.446 c 0,0.38382 0.31009,0.69391 0.69391,0.69391 0.38277,0 0.69392,-0.31009 0.69392,-0.69391 0,-0.38276 -0.31115,-0.69392 -0.69392,-0.69392 -0.38382,0 -0.69391,0.31115 -0.69391,0.69392" />
    <path
       id="path5654"
       fill="#dfdedf"
       d="m 119.06,52.934 c 0,0 0.006,-0.46179 0.27904,-1.0735 0.13829,-0.30268 0.32879,-0.65052 0.61313,-0.97084 0.27234,-0.32879 0.63712,-0.63006 1.052,-0.86042 0.21661,-0.10125 0.42616,-0.21625 0.66146,-0.26635 0.1136,-0.03245 0.22719,-0.06315 0.33973,-0.08678 0.11641,-0.01094 0.23036,-0.02293 0.3429,-0.02822 0.22366,-0.02716 0.43885,0.0046 0.63888,0.03704 0.0995,0.01905 0.19649,0.02716 0.28645,0.05433 0.0878,0.03387 0.17286,0.06632 0.25436,0.09737 0.1598,0.06421 0.30656,0.11465 0.42121,0.19509 0.11677,0.07373 0.21237,0.14852 0.29034,0.20708 0.15452,0.12065 0.23318,0.1972 0.23318,0.1972 0,0 -0.11782,0.0088 -0.30726,0.01094 -0.0938,0 -0.20709,0.0028 -0.3295,-0.006 -0.12312,-0.0078 -0.26635,0.02469 -0.41028,0.02505 -0.14605,0.0035 -0.29986,0.01764 -0.4572,0.05468 -0.15734,0.02505 -0.31926,0.04374 -0.47872,0.10195 -0.0797,0.02469 -0.16122,0.04374 -0.24306,0.0635 -0.079,0.03387 -0.15805,0.06879 -0.23883,0.09772 -0.16334,0.05221 -0.31715,0.14464 -0.47555,0.22155 -0.1584,0.07937 -0.30762,0.1838 -0.46214,0.27481 -0.14393,0.11042 -0.30021,0.20038 -0.43638,0.31609 -0.28858,0.20955 -0.54046,0.44415 -0.77999,0.63535 -0.45085,0.40499 -0.79375,0.70238 -0.79375,0.70238" />
    <path
       id="path5656"
       fill="#dfdedf"
       d="m 145.66,52.934 c 0,0 -0.3429,-0.29739 -0.79375,-0.70238 -0.23954,-0.1912 -0.49142,-0.4258 -0.77964,-0.63535 -0.13652,-0.11571 -0.2928,-0.20567 -0.43674,-0.31609 -0.15451,-0.09102 -0.30374,-0.19544 -0.46214,-0.27481 -0.15839,-0.07691 -0.31221,-0.16934 -0.47554,-0.22155 -0.0808,-0.02893 -0.15981,-0.06385 -0.23883,-0.09772 -0.0818,-0.01976 -0.16299,-0.03881 -0.24307,-0.0635 -0.15945,-0.05821 -0.32138,-0.07691 -0.47872,-0.10195 -0.15733,-0.03704 -0.31079,-0.05115 -0.45684,-0.05468 -0.14429,-3.44e-4 -0.28752,-0.03281 -0.41064,-0.02505 -0.12241,0.0088 -0.2353,0.006 -0.32949,0.006 -0.18909,-0.0021 -0.30727,-0.01094 -0.30727,-0.01094 0,0 0.0787,-0.07655 0.23319,-0.1972 0.078,-0.05856 0.17356,-0.13335 0.29033,-0.20708 0.11465,-0.08043 0.26141,-0.13088 0.42122,-0.19509 0.0815,-0.03104 0.16651,-0.0635 0.25435,-0.09737 0.09,-0.02716 0.18697,-0.03528 0.28646,-0.05433 0.20002,-0.03245 0.41522,-0.0642 0.63888,-0.03704 0.11253,0.0053 0.22648,0.01729 0.3429,0.02822 0.11289,0.02364 0.22613,0.05433 0.33972,0.08678 0.23531,0.05009 0.44486,0.1651 0.66146,0.26635 0.41487,0.23036 0.77964,0.53164 1.052,0.86042 0.28434,0.32032 0.47484,0.66816 0.61313,0.97085 0.27305,0.61172 0.2787,1.0735 0.27905,1.0735" />
    <path
       id="path5658"
       fill="#ef2e57"
       d="m 134.19,64.503 c -0.78246,-0.22013 -1.3635,0.24518 -1.8295,0.76765 -0.46707,-0.52246 -1.0481,-0.98778 -1.8298,-0.76765 -0.97191,0.27552 -1.106,0.96167 -0.58315,1.7043 0.5133,0.72919 2.3403,1.2753 2.413,1.2936 0.0723,-0.01834 1.8983,-0.56444 2.4112,-1.2936 0.52423,-0.7426 0.39123,-1.4288 -0.58173,-1.7043" />
    <path
       id="path5660"
       fill="#ffffff"
       d="m 132.34,66.128 c -0.39123,-0.12241 -1.0802,-0.41204 -1.2594,-0.66534 -0.10266,-0.14675 -0.14781,-0.2801 -0.1203,-0.35807 0.025,-0.07161 0.13829,-0.14217 0.30163,-0.18874 0.0529,-0.01447 0.10407,-0.02222 0.15381,-0.02222 0.20214,0 0.40499,0.127 0.65828,0.41028 0.0677,0.07585 0.16475,0.11924 0.266,0.11924 0.10195,0 0.19896,-0.04339 0.26635,-0.11924 0.25294,-0.28398 0.45578,-0.41028 0.65793,-0.41028 0.0494,0 0.10195,0.0078 0.15522,0.02222 0.16263,0.04657 0.27516,0.11712 0.30092,0.18874 0.0272,0.07691 -0.0187,0.21132 -0.12206,0.35772 -0.17851,0.25365 -0.86748,0.54328 -1.2584,0.66569" />
  </g>
</svg>
